<svg width="116" height="132" viewBox="0 0 116 132" fill="none" xmlns="http://www.w3.org/2000/svg">
<path d="M50.8654 62.2327C51.7302 62.3303 52.3118 62.6233 52.6103 63.1117C52.9089 63.6001 52.832 64.2062 52.3798 64.9299C51.8426 65.6608 51.394 66.4269 51.0341 67.2284C50.6742 68.0298 50.2681 68.7924 49.8159 69.5161C46.6703 73.8092 43.4288 77.9821 40.0914 82.0347C36.7468 86.0023 33.2285 89.9418 29.5366 93.8533C27.7403 95.8905 25.6736 97.2655 23.3364 97.9785C20.9991 98.6915 18.4592 99.0363 15.7167 99.013C14.434 99.0367 13.2572 98.7943 12.1862 98.2861C11.193 97.6856 10.1111 97.0498 8.94059 96.3787C6.84014 94.8448 5.20008 93.186 4.02042 91.4024C2.91854 89.5265 2.06812 87.5863 1.46914 85.582C0.955198 83.5703 0.60768 81.5017 0.426592 79.3761C0.245504 77.2504 0.103307 75.0787 0 72.8607C0.0541542 71.4859 0.150821 70.1073 0.290001 68.7252C0.421937 67.258 0.600007 65.8298 0.824212 64.4404C0.880263 64.093 0.89018 63.7068 0.853962 63.2817C0.817745 62.8566 0.827662 62.4703 0.883713 62.123C0.932521 61.6906 1.11611 61.3324 1.43448 61.0484C1.75285 60.7643 2.25214 60.5933 2.93234 60.5354C2.80385 60.0324 2.80291 59.5187 2.9295 58.994C3.13387 58.3771 3.29935 57.8063 3.42594 57.2817C3.55253 56.7571 3.59409 56.2397 3.55063 55.7295C3.58495 55.1271 3.40671 54.5428 3.0159 53.9766L3.14344 53.9657L3.1543 54.0933C3.73499 53.8725 4.09588 53.5848 4.23695 53.2302C4.37803 52.8757 4.50824 52.3935 4.62759 51.7839C5.7124 44.4118 7.37522 37.2903 9.61606 30.4193C11.9347 23.456 14.9905 16.6012 18.7835 9.8549C19.1507 9.13848 19.6065 8.45733 20.151 7.81144C20.6955 7.16556 21.1513 6.48441 21.5185 5.76799C21.7518 5.49118 21.9888 5.25689 22.2294 5.06511C22.47 4.87333 22.7033 4.59652 22.9294 4.23469C23.4739 3.58881 24.0862 3.23689 24.7664 3.17894C25.5317 3.11375 26.2969 3.04856 27.0621 2.98337C27.8274 2.91818 28.5428 2.77158 29.2085 2.54359C29.8743 2.31558 30.3835 1.75835 30.7362 0.871877C33.399 -0.0401204 36.2085 -0.236645 39.1645 0.282304C40.8235 0.654827 41.8836 1.03555 42.345 1.42446C42.8063 1.81337 43.113 2.90059 43.2651 4.68612C43.6037 7.65476 43.8572 10.6306 44.0257 13.6138C44.2792 16.5897 44.5328 19.5656 44.7863 22.5414C44.8461 24.2492 44.9485 25.9533 45.0934 27.6538C45.3233 29.3471 45.9747 30.9616 47.0476 32.4974C47.5379 33.2264 47.5886 33.8216 47.1997 34.283C46.8108 34.7443 46.3612 34.9967 45.8511 35.0402C44.4201 35.3334 42.9856 35.584 41.5474 35.7922C40.102 35.9153 38.6918 35.9498 37.3169 35.8957C35.8425 35.6787 34.8456 35.0357 34.3264 33.9666C33.7998 32.8124 33.2733 31.6583 32.7467 30.5042C32.441 29.9307 32.1813 29.3962 31.9678 28.9005C31.8321 28.3126 31.6538 27.7282 31.4331 27.1476C31.0514 27.6939 30.6272 28.2439 30.1605 28.7975C29.7789 29.3439 29.5284 29.9219 29.409 30.5316C26.4556 39.0905 24.2321 47.6729 22.7385 56.2787C21.33 64.8773 20.921 73.6477 21.5115 82.5899C21.5062 83.5324 21.5895 84.5102 21.7614 85.5232C21.9261 86.4513 22.0908 87.3793 22.2555 88.3073C22.6444 87.846 22.9981 87.4733 23.3164 87.1892C23.6276 86.8202 23.9776 86.405 24.3665 85.9436C27.6623 82.4084 30.8342 78.9266 33.8822 75.4982C37.0152 72.0625 39.7791 68.3157 42.174 64.2578C43.0639 62.6404 44.3274 61.8904 45.9647 62.0079C46.8294 62.1055 47.6905 62.1606 48.548 62.1732C49.3983 62.1007 50.1707 62.1206 50.8654 62.2327ZM2.54791 71.1021C2.55516 71.1871 2.65105 71.3074 2.83559 71.463C2.82834 71.378 2.86361 71.2893 2.94139 71.1971C2.75686 71.0415 2.66459 70.9637 2.66459 70.9637L2.54791 71.1021ZM2.13322 76.7898C2.24187 78.0652 2.27275 79.4329 2.22584 80.8928C2.25671 82.2604 2.79049 83.4996 3.82717 84.6103C3.6335 83.3421 3.44344 82.1165 3.257 80.9334C3.06333 79.6653 2.82714 78.4008 2.54843 77.1399C2.5267 76.8848 2.4697 76.7184 2.37743 76.6406C2.27792 76.4778 2.17841 76.315 2.0789 76.1522L2.13322 76.7898ZM4.31042 87.2669C4.29593 87.0968 4.28507 86.9693 4.27783 86.8842C4.34836 86.7069 4.38001 86.5758 4.37277 86.4908C4.13028 85.655 3.95204 85.0707 3.83804 84.7378C3.77474 85.0001 3.75758 85.3014 3.78656 85.6415C3.80829 85.8965 3.74862 86.2014 3.60754 86.556C3.61478 86.641 3.84908 86.8779 4.31042 87.2669ZM5.14369 89.5082L5.00528 89.3915L5.02701 89.6466L5.14369 89.5082ZM2.62061 64.4158C2.75444 63.9762 2.94528 63.703 3.19311 63.5963C3.00133 63.3557 2.90181 63.1929 2.89457 63.1078C2.88733 63.0228 2.83395 62.8989 2.73444 62.7361C2.6639 62.9134 2.59336 63.0907 2.52282 63.268C2.44504 63.3602 2.37088 63.495 2.30034 63.6723C2.31483 63.8424 2.42158 64.0902 2.62061 64.4158ZM28.8332 23.7721C28.6216 24.3039 28.3674 24.8395 28.0708 25.3786C27.7741 25.9177 27.52 26.4532 27.3084 26.9851C27.2379 27.1624 27.1637 27.2972 27.0859 27.3894C27.0009 27.3967 26.962 27.4428 26.9693 27.5278C27.89 27.2781 28.4101 26.8484 28.5295 26.2387C28.6416 25.5441 28.8423 24.8846 29.1317 24.2605C29.1172 24.0904 29.0177 23.9276 28.8332 23.7721ZM21.2461 88.5218C21.4016 88.3373 21.5681 88.2803 21.7454 88.3508C21.9154 88.3363 22.0855 88.3218 22.2555 88.3073C22.0492 87.8967 21.8077 87.5747 21.5309 87.3414C21.2541 87.108 21.0126 86.786 20.8063 86.3754C20.1764 83.0033 19.7628 79.6557 19.5653 76.3325C19.3606 72.9242 19.4146 69.5367 19.7273 66.1701C20.647 53.8448 23.0168 41.9527 26.8365 30.4938C26.9704 30.0542 26.9803 29.668 26.8663 29.3351C26.8301 28.91 26.7939 28.4848 26.7576 28.0597C26.6383 28.6694 26.4764 29.2827 26.2721 29.8996C26.0677 30.5165 25.8986 31.0448 25.7648 31.4844C23.2254 37.867 21.2531 44.3725 19.8481 51.001C18.528 57.6223 17.7679 64.2816 17.5677 70.9787C17.3743 73.7357 17.3972 76.5172 17.6362 79.323C17.9603 82.1216 18.2843 84.9202 18.6084 87.7188C18.8799 88.8947 19.1467 89.5143 19.4091 89.5775C19.6714 89.6408 20.2837 89.2889 21.2461 88.5218ZM3.49346 53.5505C3.33065 53.65 3.25287 53.7423 3.26011 53.8273C3.26011 53.8273 3.22122 53.8734 3.14344 53.9657C3.05117 53.8879 2.99779 53.764 2.9833 53.594L3.49346 53.5505Z" fill="#FEF08A"/>
<path d="M114.346 28.9816C114.672 28.7826 114.988 28.9698 115.294 29.5433C115.684 30.1095 115.6 30.6305 115.041 31.1063C114.567 31.5749 114.09 32.001 113.609 32.3846C113.205 32.6759 112.682 33.063 112.038 33.5461C109.758 34.9393 107.483 36.375 105.211 37.8532C102.931 39.2463 100.613 40.6857 98.256 42.1711C97.6048 42.5691 97.1236 42.9527 96.8125 43.3218C96.5013 43.6909 96.7682 44.3104 97.6131 45.1805C98.1812 45.8173 98.5902 46.596 98.8399 47.5168C99.1674 48.3453 99.371 49.2272 99.4507 50.1625C99.9684 54.2293 100.139 58.2399 99.9619 62.1946C99.8627 66.0569 99.5546 69.9799 99.0375 73.9635C98.1136 80.2085 97.0088 86.3404 95.7231 92.3592C94.4374 98.3781 92.8115 104.426 90.8456 110.503C89.4783 114.559 87.7844 118.3 85.764 121.727C84.4924 123.89 82.9757 125.69 81.2138 127.124C79.4446 128.474 77.2955 129.385 74.7665 129.857C73.0805 130.172 71.3556 130.533 69.5918 130.941C67.9202 131.426 66.1844 131.659 64.3844 131.641C60.381 131.897 56.8605 130.783 53.8228 128.302C50.7852 125.82 48.88 122.557 48.1072 118.512C47.727 116.06 47.602 113.587 47.7321 111.093C47.8621 108.598 48.1658 106.131 48.6432 103.693C49.0699 100.659 49.6738 97.6954 50.4551 94.8026C51.3214 91.9026 52.4961 89.1048 53.9793 86.4092C54.7065 84.8913 55.8985 83.8049 57.5556 83.1499C59.2904 82.4026 60.867 82.3111 62.2854 82.8754C64.1433 83.5735 64.7667 85.3617 64.1555 88.24L64.1664 88.3675C63.6871 89.7786 63.2503 91.1861 62.856 92.59C62.5468 93.9866 62.2412 95.4258 61.9392 96.9074L62.0233 96.3864L62.045 96.6415L61.9175 96.6523C61.7837 97.0919 61.6498 97.5316 61.516 97.9712C61.4599 98.3185 61.365 98.712 61.2312 99.1516L62.8892 99.0104C63.1209 101.731 63.3102 104.456 63.457 107.184C63.6815 109.819 63.9097 112.498 64.1415 115.219C64.1995 115.899 64.3886 116.611 64.7088 117.354C65.1141 118.09 65.4308 118.791 65.6588 119.457C65.9646 120.031 66.2911 120.345 66.6385 120.401C67.0636 120.365 67.4209 120.035 67.7103 119.411C68.3451 117.815 69.0224 116.216 69.7423 114.613C70.4622 113.01 71.0509 111.376 71.5085 109.709C72.4941 106.2 73.4408 102.736 74.3487 99.3187C75.2493 95.8163 76.1427 92.2289 77.0288 88.5564C78.273 83.0549 79.4357 77.6032 80.5171 72.2013C81.6835 66.7921 82.4953 61.2418 82.9525 55.5504C83.0646 54.8557 83.1025 54.2958 83.0663 53.8707C83.1205 52.4958 83.0127 51.7342 82.7432 51.5859C82.5586 51.4303 81.8504 51.6619 80.6185 52.2807C77.6735 53.9019 74.6217 55.2753 71.4632 56.4008C68.2974 57.4412 65.0891 58.4854 61.8383 59.5331C61.2576 59.7538 60.4888 59.7765 59.5318 59.6011C58.5748 59.4257 57.6069 59.1228 56.6282 58.6923C55.6494 58.2618 54.7096 57.7852 53.8086 57.2625C52.9927 56.7325 52.4318 56.1808 52.126 55.6073C51.6212 54.7083 51.5416 53.773 51.887 52.8015C52.2324 51.83 52.9434 51.1271 54.0197 50.6929C55.5628 49.705 57.1167 48.8446 58.6814 48.1118C60.324 47.2868 61.9666 46.4617 63.6091 45.6366C70.1794 42.3363 76.7035 38.9971 83.1814 35.6191C89.7444 32.2337 96.311 28.8909 102.881 25.5906C104.113 24.9718 105.101 24.5023 105.844 24.182C106.588 23.8618 107.222 23.7649 107.747 23.8915C108.271 24.0181 108.775 24.4034 109.258 25.0474C109.734 25.6063 110.363 26.452 111.144 27.5844C111.613 28.0584 111.996 28.5395 112.295 29.028C112.671 29.4241 113.355 29.4087 114.346 28.9816ZM61.45 119.816C61.5713 120.234 61.8164 120.598 62.1855 120.909C62.5473 121.135 62.8739 121.45 63.1652 121.853C62.3817 119.693 61.8532 117.512 61.5799 115.308C61.2993 113.02 61.1498 110.763 61.1316 108.538C61.164 106.908 61.1648 105.409 61.1339 104.042C61.188 102.667 61.1961 101.253 61.158 99.8002C60.2429 103.133 59.7565 106.471 59.6989 109.816C59.6413 113.161 60.225 116.494 61.45 119.816ZM63.4529 122.214C63.3678 122.222 63.3217 122.183 63.3145 122.098L63.3362 122.353L63.4529 122.214ZM93.9986 44.9746C93.843 45.1591 93.6025 45.3509 93.2768 45.5499C92.944 45.6639 92.7848 45.806 92.7993 45.976C93.0128 46.4717 93.1838 46.971 93.3123 47.4739C93.5186 47.8845 93.7284 48.3377 93.942 48.8333C94.0468 48.0536 94.1408 47.1464 94.2239 46.1116C94.3795 45.927 94.4075 45.7534 94.308 45.5906C94.2013 45.3427 94.0981 45.1374 93.9986 44.9746ZM92.0858 79.8228C92.0858 79.8228 91.9935 79.745 91.809 79.5894C91.9085 79.7522 91.9691 79.9612 91.9909 80.2162C92.0053 80.3863 92.0623 80.5527 92.1618 80.7155L92.0858 79.8228ZM90.8979 86.9895C90.9611 86.7271 90.9855 86.511 90.9711 86.3409C90.9783 86.4259 90.9394 86.4721 90.8544 86.4793L90.8979 86.9895ZM91.4321 82.7046C91.5587 82.18 91.6961 81.7829 91.8444 81.5133C91.8372 81.4283 91.9113 81.2935 92.0669 81.109C91.7268 81.138 91.479 81.2447 91.3234 81.4293C91.1678 81.6138 91.1434 81.83 91.2502 82.0778C91.357 82.3257 91.4176 82.5346 91.4321 82.7046ZM92.5983 75.2829C92.6761 75.1906 92.7077 75.0594 92.6932 74.8894L92.6606 74.5068C92.4273 74.7836 92.3142 74.9645 92.3215 75.0495C92.3287 75.1345 92.3748 75.1734 92.4599 75.1662L92.5983 75.2829ZM93.2383 70.7321C93.2238 70.5621 93.2093 70.392 93.1948 70.222C93.2581 69.9596 93.2825 69.7435 93.268 69.5734C93.1613 69.3256 93.0084 69.0388 92.8094 68.7132C92.8239 68.8833 92.7995 69.0995 92.7362 69.3618C92.7506 69.5318 92.8076 69.6983 92.9072 69.8611C92.9144 69.9461 93.0248 70.2364 93.2383 70.7321ZM92.7985 68.5857C93.4787 68.5277 93.8468 68.3251 93.9029 67.9778C93.9517 67.5454 93.9544 67.0741 93.9109 66.564C93.8964 66.3939 93.843 66.27 93.7508 66.1922C93.7435 66.1072 93.7363 66.0222 93.729 65.9371C93.5662 66.0367 93.3682 66.2248 93.1348 66.5016C92.9937 66.8562 92.8952 67.2072 92.8391 67.5545C92.8681 67.8946 92.8546 68.2383 92.7985 68.5857ZM94.4451 62.2792C94.6186 60.2946 94.7107 58.3598 94.7214 56.4748C94.8099 54.4974 94.9409 52.5165 95.1144 50.5319C95.0999 50.3619 94.9542 50.1602 94.6774 49.9269C94.4006 49.6935 94.1591 49.3715 93.9528 48.9609C93.9711 51.186 93.9044 53.4184 93.7526 55.658C93.5936 57.8127 93.4807 60.0062 93.4139 62.2385C93.4284 62.4086 93.5352 62.6564 93.7342 62.982C93.8048 62.8047 93.8825 62.7125 93.9676 62.7052C94.1304 62.6057 94.2896 62.4637 94.4451 62.2792ZM63.5212 95.8734C63.4868 96.4758 63.4028 96.9968 63.2689 97.4364C63.1351 97.8761 63.0049 98.3582 62.8783 98.8828C62.6793 98.5572 62.5228 98.228 62.4088 97.8951C62.3725 97.47 62.2513 97.0521 62.045 96.6415C62.1083 96.3792 62.2566 96.1096 62.49 95.8328C62.8156 95.6338 63.0453 95.3144 63.1792 94.8748C63.3999 95.4555 63.5139 95.7884 63.5212 95.8734ZM62.8783 98.8828C62.8855 98.9679 62.9317 99.0067 63.0167 98.9995L63.1442 98.9886L62.8892 99.0104L62.8783 98.8828ZM64.1664 88.3675L64.1555 88.24C64.4956 88.211 64.7968 88.2282 65.0591 88.2915C65.3142 88.2698 65.6543 88.2408 66.0794 88.2046C66.2205 87.85 66.2802 87.5451 66.2584 87.2901C66.3217 87.0277 66.4312 86.8043 66.5867 86.6198C66.5722 86.4497 66.5189 86.3258 66.4266 86.248C66.5116 86.2408 66.5578 86.2797 66.565 86.3647L66.5867 86.6198C66.4312 86.8043 66.3217 87.0277 66.2584 87.2901C66.2802 87.5451 66.2205 87.85 66.0794 88.2046L64.1664 88.3675Z" fill="#FEF08A"/>
</svg>
