<?xml version="1.0" standalone="no"?>
<!DOCTYPE svg PUBLIC "-//W3C//DTD SVG 20010904//EN"
 "http://www.w3.org/TR/2001/REC-SVG-20010904/DTD/svg10.dtd">
<svg version="1.0" xmlns="http://www.w3.org/2000/svg"
 width="420.000000pt" height="420.000000pt" viewBox="0 0 420.000000 420.000000"
 preserveAspectRatio="xMidYMid meet">
<metadata>
Created by potrace 1.14, written by Peter Selinger 2001-2017
</metadata>
<g transform="translate(0.000000,420.000000) scale(0.100000,-0.100000)"
fill="#000000" stroke="none">
<path d="M1951 3628 c-152 -32 -248 -71 -362 -145 -87 -57 -199 -166 -230
-225 -6 -13 -15 -25 -20 -28 -14 -10 -58 -118 -83 -202 -23 -81 -38 -149 -51
-243 -7 -45 -15 -92 -20 -115 -2 -8 -4 -18 -4 -22 -1 -4 -8 -14 -17 -23 -19
-19 -20 -41 -4 -140 7 -38 11 -100 10 -137 -1 -58 2 -68 19 -78 21 -11 29 -30
12 -30 -5 0 -16 7 -24 15 -8 7 -26 17 -40 20 -20 5 -29 1 -48 -24 -30 -40 -33
-58 -32 -171 0 -108 8 -179 29 -265 18 -77 42 -109 84 -115 32 -5 34 -7 57
-94 25 -97 95 -254 137 -309 14 -19 26 -39 26 -45 0 -6 3 -12 8 -14 4 -1 23
-23 42 -48 88 -115 246 -268 287 -278 7 -2 13 -7 13 -12 0 -5 16 -14 35 -21
19 -7 35 -17 35 -21 0 -4 7 -8 15 -8 9 0 27 -7 40 -16 14 -9 25 -13 25 -9 0 4
6 3 13 -2 37 -30 224 -48 320 -31 112 20 247 84 367 174 111 85 299 280 300
312 0 6 5 12 10 12 6 0 10 7 10 15 0 8 5 15 11 15 5 0 8 4 5 9 -4 5 -2 11 2
13 11 4 67 120 84 173 11 35 17 40 43 40 17 0 40 9 52 20 22 21 65 117 79 175
11 49 11 50 14 53 1 1 3 9 5 17 2 8 7 26 10 40 34 139 26 229 -22 254 -23 12
-31 11 -62 -6 l-36 -20 23 20 c12 11 27 22 33 24 6 2 13 31 15 63 3 54 6 76
20 152 2 12 15 34 28 48 21 22 23 31 15 54 -6 16 -18 37 -27 47 -14 16 -17 40
-17 139 0 297 -46 478 -159 623 -58 75 -111 132 -121 132 -4 0 -17 10 -29 23
-24 27 -129 97 -145 97 -6 0 -11 5 -11 12 0 6 -3 9 -6 5 -3 -3 -22 4 -42 15
-38 21 -188 72 -239 82 -15 3 -39 8 -53 12 -14 4 -97 8 -185 9 -122 1 -180 -3
-244 -17z"/>
</g>
</svg>
