<?xml version="1.0" encoding="UTF-8"?>
<svg xmlns="http://www.w3.org/2000/svg" width="75" height="18" viewBox="0 0 75 18" fill="none">
  <path fill-rule="evenodd" clip-rule="evenodd" d="M11.1226 17.8934C12.9338 17.8934 14.4768 16.6 14.4768 15.4C14.4768 15.1334 14.3828 14.8 14.2084 14.5867C13.9535 14.6534 13.5107 14.72 13.3095 14.72C12.9741 14.72 12.7594 14.5867 12.4911 14.0667C11.7129 12.5334 10.8274 11.4 10.3712 10.96C12.8667 8.65336 14.1682 6.73336 14.1682 4.56003C14.1682 1.97336 12.2764 0.133362 8.47944 0.133362C3.78355 0.133362 0.0134277 3.44003 0.0134277 5.68003C0.0134277 6.4667 0.375682 6.97336 0.966022 6.97336C1.14044 6.97336 1.34169 6.93336 1.47586 6.8667C2.21379 5.40003 3.87747 3.80003 5.70216 3.5867C4.9602 6.01118 4.2536 8.07254 3.6376 9.86959C3.59639 9.9898 3.55559 10.1088 3.51522 10.2267C2.56262 12.9867 2.41504 13.8667 2.41504 14.4534C2.41504 15.3067 3.24688 16.6 4.50806 16.6C5.05815 16.6 5.43382 16.44 5.60824 16.2C5.64849 15.4667 5.95708 13.6 6.35958 12C7.37926 12.3334 7.94277 13.3867 9.33811 16.3867C9.8882 17.56 10.2907 17.8934 11.1226 17.8934ZM8.0501 3.49336C9.94187 3.6267 10.6261 4.57336 10.6261 5.73336C10.6261 7.05336 10.1968 8.12003 8.78802 9.9867C8.47944 9.9067 8.06352 9.84003 7.6476 9.84003C7.39268 9.84003 7.13776 9.86669 6.92309 9.90669C7.60735 7.10669 8.00985 4.88003 8.0501 3.49336Z" fill="#4BAA4C"></path>
  <path fill-rule="evenodd" clip-rule="evenodd" d="M13.4167 13.3067C13.4167 15.3067 14.3425 16.3333 15.6037 16.3333C16.3819 16.3333 17.3881 15.7867 18.1126 13.8C18.0724 14.1333 18.0455 14.4133 18.0455 14.6533C18.0455 16.0533 18.6627 16.4533 19.6287 16.4533C21.2119 16.4533 24.8747 12.9333 24.8747 11.5067C24.8747 11.1067 24.5259 10.8267 24.0563 10.8267C22.6475 12.8 21.5071 13.6267 21.0643 13.6267C20.8899 13.6267 20.796 13.56 20.796 13.12C20.796 12.56 21.0778 11.1733 21.8559 8.41335C22.0303 7.80001 22.0974 7.25335 22.0974 6.97335C22.0974 6.21335 21.279 5.20001 19.7763 5.20001C19.4677 5.20001 19.1726 5.28001 18.9981 5.48001L18.9311 6.74668C18.8237 6.62668 18.6627 6.58668 18.3541 6.58668C16.1538 6.58668 13.4167 10.0267 13.4167 13.3067ZM16.6636 12.36C16.6636 10.68 17.7235 8.86668 18.8237 8.16001L18.1261 12.7067C17.8577 13.04 17.5491 13.2533 17.2405 13.2533C16.932 13.2533 16.6636 13.1733 16.6636 12.36Z" fill="#4BAA4C"></path>
  <path fill-rule="evenodd" clip-rule="evenodd" d="M29.5037 2.53334C29.5037 1.85334 28.5108 0.893341 27.6253 0.893341C26.9142 0.893341 26.5385 1.52001 26.552 3.29334C26.552 4.56001 27.1691 5.20001 28.0278 5.20001C29.0877 3.92001 29.5037 3.05334 29.5037 2.53334ZM26.8069 6.68001C25.4384 6.68001 23.4795 8.97334 23.4795 10.2667C23.4795 10.7067 23.5198 11.2133 23.6942 11.6267C23.1441 12.9867 22.9026 13.8933 22.9026 14.8533C22.9026 16.0533 23.3453 16.6267 24.6468 16.6267C26.6727 16.6267 30.1745 12.9333 30.1745 11.5467C30.1745 11.1067 29.7317 10.76 29.3158 10.76C27.84 12.84 26.8471 13.5467 26.5385 13.5467C26.3373 13.5467 26.23 13.4533 26.23 13.2133C26.23 12.7067 26.5117 12 27.1289 10.4933C27.5314 9.57334 27.9071 8.65334 27.9071 8.08001C27.9071 7.22667 27.8266 6.68001 26.8069 6.68001Z" fill="#4BAA4C"></path>
  <path d="M30.0269 5.02667C30.4294 2.06667 31.9857 0.293335 33.7299 0.293335C34.6825 0.293335 35.2729 0.733335 35.2729 1.85333C35.2729 2.81333 34.8301 3.89333 33.1798 6.97333C32.5895 9.09333 31.543 12.9067 31.543 13.4533C31.543 13.6933 31.6503 13.7867 31.8516 13.7867C32.5358 13.7867 33.8373 12.5333 34.9777 10.76C35.3936 10.76 35.8095 11.0667 35.8095 11.5067C35.8095 13.1733 32.2407 16.6133 30.0135 16.6133C28.7389 16.6133 28.2693 16.0667 28.2693 14.92C28.2693 13.4533 28.9804 10.9067 29.1548 9.98667C29.4231 8.58667 29.8256 6.52 30.0269 5.02667Z" fill="#4BAA4C"></path>
  <path d="M49.4545 1.72001C49.4545 2.46668 49.0386 3.42668 47.442 4.72001C46.8516 6.84001 45.3758 12.92 45.3758 13.4667C45.3758 13.7067 45.4831 13.8 45.6844 13.8C46.3686 13.8 47.6701 12.5467 48.8105 10.7733C49.2264 10.7733 49.6423 11.08 49.6423 11.52C49.6423 13.1867 46.0735 16.6267 43.8463 16.6267C42.5717 16.6267 42.1021 16.08 42.1021 14.9333C42.1021 13.4667 42.7863 10.92 42.9876 10C43.323 8.44001 43.6316 6.76001 43.9536 5.02668C43.9804 4.89335 43.9939 4.74668 44.0475 4.58668C42.9071 4.41335 41.9142 4.32001 41.5117 4.32001C40.6933 4.32001 40.2103 4.86668 40.1701 5.92001C41.4447 5.92001 42.1826 6.18668 42.1826 6.84001C42.1826 7.66668 41.2837 8.92001 40.4384 8.92001C39.9688 8.92001 39.5126 8.58668 39.137 8.10668C39.2711 8.45335 39.4456 8.82668 39.6468 9.22668C40.5726 11.0933 40.9751 12.3867 40.9751 13.32C40.9751 15.6 39.2577 16.7867 37.0708 16.7867C35.3534 16.7867 33.7434 15.6267 33.7434 13.4533C33.7434 12.16 34.0922 10.04 35.179 10.04C35.9572 10.04 36.5744 11.0267 36.5744 11.5733C36.5744 12.04 36.3731 12.36 35.9974 12.7733C36.1719 13.7333 36.9232 14.4 37.433 14.4C37.6477 14.4 37.9026 14.2667 37.9026 13.8933C37.9026 12.7733 36.5744 9.69335 36.5744 8.33335C36.5744 7.41335 37.0574 6.62668 38.2515 6.12001C38.2112 5.90668 38.1844 5.66668 38.1844 5.44001C38.1844 3.26668 39.5529 1.73335 41.9142 1.73335C42.6388 1.73335 43.2157 1.89335 44.6915 2.48001C45.2819 1.05335 46.1405 0.0666809 47.3212 0.0666809C48.247 0.0800142 49.4545 0.853347 49.4545 1.72001Z" fill="#4BAA4C"></path>
  <path fill-rule="evenodd" clip-rule="evenodd" d="M55.5322 12.24C56.0018 11.04 56.2165 10.1867 56.2165 9.13333C56.2165 8.14667 55.7737 6.96 54.8748 6.94667C54.5125 6.94667 54.3113 7.04 54.0966 7.25333C54.0698 6.53333 53.3721 6.29333 52.7952 6.29333C50.4607 6.29333 48.0322 9.66667 48.0322 13.3067C48.0322 15.4533 49.2666 16.48 50.8363 16.48C52.3793 16.48 53.5465 15.6933 54.6065 14.2667C54.848 14.4133 55.0895 14.48 55.492 14.48C57.3703 14.48 58.8462 12.4267 58.8462 11.5067C58.8462 11.0533 58.39 10.72 57.9875 10.72C57.2496 11.88 56.619 12.3867 55.975 12.3867C55.7469 12.3867 55.5993 12.3067 55.5322 12.24ZM53.4124 12.3867C53.0233 13.3733 52.4866 13.88 51.9634 13.88C51.5608 13.88 51.1583 13.5733 51.1583 12.4933C51.1583 10.6933 52.2854 8.57333 53.6539 7.93333C53.3319 8.57333 53.1709 9.73334 53.1709 10.48C53.1709 11.0667 53.238 11.7067 53.4124 12.3867Z" fill="#4BAA4C"></path>
  <path d="M59.9061 16.5334C58.229 16.5334 56.9946 15.64 56.9946 13.44C56.9946 12.3467 57.4374 10.92 58.3229 9.66669C57.7728 9.40003 57.6789 8.92003 57.6789 8.53336C57.7057 7.44003 59.0877 6.25336 60.8318 6.25336C61.6905 6.25336 62.4419 6.60003 62.4419 7.48003C62.4419 7.57336 62.4419 7.65336 62.415 7.7467C61.0063 9.06669 60.1476 11.0534 60.1476 12.6534C60.1476 13.5067 60.3622 13.8134 60.8587 13.8134C61.7576 13.8134 63.1932 11.4 63.1932 8.29336C63.1932 7.89336 63.1261 7.0667 63.059 6.60003C63.2603 6.33336 63.6494 6.13336 64.186 6.13336C65.5546 6.13336 66.0376 7.12003 66.0376 8.21336C66.0376 12.9467 62.7773 16.5334 59.9061 16.5334Z" fill="#4BAA4C"></path>
  <path fill-rule="evenodd" clip-rule="evenodd" d="M70.0627 6.14667C67.9294 6.14667 65.2192 9.52 65.2192 12.8267C65.2192 15.2 66.2121 16.5333 68.3588 16.5333C71.23 16.5333 74.9062 13.0533 74.9062 11.4267C74.9062 11.08 74.5976 10.7333 74.0743 10.7067C72.8132 12.6133 70.8811 13.88 69.3785 13.88C68.5198 13.88 68.3185 13.3333 68.3185 12.3467C71.3373 11.6667 72.4241 10.24 72.4241 8.4C72.4241 6.86667 71.5788 6.14667 70.0627 6.14667ZM68.4527 10.7333C68.6137 9.2 69.204 8.45333 69.5126 8.45333C69.781 8.45333 69.9554 8.70667 69.9554 9.17333C69.9554 9.84 69.687 10.52 68.4527 10.7333Z" fill="#4BAA4C"></path>
</svg>
